<?xml version="1.0" encoding="UTF-8" standalone="no"?>
<svg
   width="38.124535"
   height="37.832268"
   viewBox="0 0 38.124535 37.832268"
   fill="none"
   version="1.1"
   id="svg235"
   xmlns="http://www.w3.org/2000/svg"
   xmlns:svg="http://www.w3.org/2000/svg">
  <defs
     id="defs239" />
  <path
     d="M 19.062268,0 C 8.578065,0 0,8.5273925 0,19.030099 0,28.526184 6.976787,36.407861 16.088555,37.832268 V 24.537845 h -4.841854 v -5.507746 h 4.841854 v -4.197292 c 0,-4.767055 2.840317,-7.3879037 7.205535,-7.3879037 2.077746,0 4.250843,0.3608458 4.250843,0.3608458 V 12.49678 h -2.401844 c -2.36368,0 -3.107109,1.46243 -3.107109,2.962766 v 3.570553 h 5.299349 l -0.857802,5.507746 H 22.03598 v 13.294423 c 4.491871,-0.706866 8.582231,-2.990235 11.532467,-6.438319 2.950236,-3.447844 4.566394,-7.833097 4.55604,-12.36385 C 38.124487,8.5273925 29.546471,0 19.062268,0 Z"
     fill="#14151b"
     id="path233"
     style="stroke-width:1.20172" />
</svg>
