<svg width="26" height="25" viewBox="0 0 26 25" fill="none" xmlns="http://www.w3.org/2000/svg">
<path d="M13.1497 0.503174C6.40078 0.503174 0.878906 6.01278 0.878906 12.7986C0.878906 18.934 5.37003 24.0264 11.2355 24.9467V16.3571H8.1187V12.7986H11.2355V10.0867C11.2355 7.00672 13.0638 5.31334 15.8739 5.31334C17.2114 5.31334 18.6103 5.54649 18.6103 5.54649V8.57738H17.0641C15.5426 8.57738 15.064 9.52224 15.064 10.4917V12.7986H18.4753L17.9231 16.3571H15.064V24.9467C17.9555 24.49 20.5886 23.0147 22.4877 20.7869C24.3869 18.5592 25.4272 15.7259 25.4206 12.7986C25.4206 6.01278 19.8987 0.503174 13.1497 0.503174Z" fill="white"/>
</svg>
