<svg width="20" height="18" viewBox="0 0 20 18" fill="none" xmlns="http://www.w3.org/2000/svg">
<path fill-rule="evenodd" clip-rule="evenodd" d="M14.5833 2.00004C14.5833 1.35571 14.0983 0.833374 13.5 0.833374H1.33333C0.735007 0.833374 0.25 1.35571 0.25 2.00004C0.25 2.64437 0.735007 3.16671 1.33333 3.16671H13.5C14.0983 3.16671 14.5833 2.64437 14.5833 2.00004ZM17.5 9.00004C17.5 8.35569 17.015 7.83337 16.4167 7.83337H1.33333C0.735007 7.83337 0.25 8.35569 0.25 9.00004C0.25 9.64439 0.735007 10.1667 1.33333 10.1667H16.4167C17.015 10.1667 17.5 9.64439 17.5 9.00004ZM19.75 16C19.75 15.3557 19.265 14.8334 18.6667 14.8334H1.33333C0.735007 14.8334 0.25 15.3557 0.25 16C0.25 16.6444 0.735007 17.1667 1.33333 17.1667H18.6667C19.265 17.1667 19.75 16.6444 19.75 16Z" fill="white"/>
</svg>
