<?xml version="1.0" encoding="UTF-8" standalone="no"?>
<svg
   width="39.775398"
   height="39.964783"
   viewBox="0 0 39.775398 39.964783"
   fill="none"
   version="1.1"
   id="svg10"
   xmlns="http://www.w3.org/2000/svg"
   xmlns:svg="http://www.w3.org/2000/svg">
  <defs
     id="defs14" />
  <path
     d="m 19.88768,39.964782 c 10.983606,0 19.887716,-8.946389 19.887716,-19.982415 C 39.775396,8.9464611 30.871286,0 19.88768,0 8.9039554,0 0,8.9464611 0,19.982367 0,31.018393 8.9039554,39.964782 19.88768,39.964782 Z"
     fill="#14151b"
     id="path2"
     style="stroke-width:1.19609" />
  <path
     d="m 19.88768,10.153196 c 3.186125,0 3.563554,0.01223 4.821727,0.0699 1.16343,0.05335 1.795261,0.24866 2.215766,0.412796 0.557014,0.217488 0.954489,0.477299 1.372011,0.896809 0.417641,0.41963 0.676221,0.818997 0.892678,1.378664 0.163358,0.422507 0.35774,1.057347 0.41084,2.226196 0.0574,1.264285 0.06957,1.643391 0.06957,4.844687 0,3.201416 -0.01217,3.580522 -0.06957,4.844807 -0.0531,1.168969 -0.247482,1.803809 -0.41084,2.226316 -0.216457,0.559547 -0.475037,0.959034 -0.892559,1.378544 -0.417641,0.41951 -0.815116,0.679321 -1.37213,0.896809 -0.420505,0.164256 -1.052336,0.359443 -2.215766,0.412796 -1.257935,0.05767 -1.635363,0.07002 -4.821727,0.07002 -3.186364,0 -3.563673,-0.01235 -4.821727,-0.07002 -1.163429,-0.05335 -1.795261,-0.24854 -2.215885,-0.412796 -0.556895,-0.217488 -0.95437,-0.477299 -1.371892,-0.896809 -0.417522,-0.41951 -0.676221,-0.818997 -0.892678,-1.378544 -0.163357,-0.422507 -0.35774,-1.057347 -0.41084,-2.226316 -0.0574,-1.264285 -0.06957,-1.643391 -0.06957,-4.844807 0,-3.201296 0.01217,-3.580402 0.06957,-4.844687 0.0531,-1.168849 0.247483,-1.803689 0.41084,-2.226196 0.216457,-0.559667 0.475037,-0.959034 0.892678,-1.378544 0.417522,-0.41963 0.814997,-0.679441 1.371892,-0.896929 0.420624,-0.164136 1.052456,-0.359443 2.215885,-0.412796 1.258174,-0.05767 1.635602,-0.0699 4.821727,-0.0699 z m 0,-2.1602539 c -3.240657,0 -3.647082,0.013788 -4.919813,0.072176 -1.269988,0.058269 -2.137488,0.2608899 -2.896521,0.5572685 -0.784688,0.3063298 -1.45017,0.7162482 -2.1135027,1.3828604 -0.6634531,0.666492 -1.0714289,1.335142 -1.376307,2.123567 -0.2950933,0.762647 -0.4967543,1.634159 -0.5546275,2.910313 -0.058112,1.278792 -0.071846,1.687152 -0.071846,4.94312 0,3.256208 0.013734,3.664448 0.071846,4.94324 0.057873,1.276155 0.2595342,2.147786 0.5546275,2.910313 0.3048781,0.788425 0.7128539,1.457075 1.376307,2.123687 0.6633327,0.666492 1.3288147,1.076411 2.1135027,1.382741 0.759033,0.296498 1.626533,0.499119 2.896521,0.557388 1.272731,0.05827 1.679156,0.07206 4.919813,0.07206 3.240657,0 3.647082,-0.01379 4.919813,-0.07206 1.269988,-0.05827 2.137488,-0.26089 2.896521,-0.557388 0.784688,-0.30633 1.45017,-0.716249 2.113503,-1.382741 0.663334,-0.666612 1.071429,-1.335262 1.376307,-2.123687 0.294974,-0.762527 0.496635,-1.634158 0.554628,-2.910313 0.05811,-1.278792 0.07183,-1.687032 0.07183,-4.94324 0,-3.255968 -0.01372,-3.664328 -0.07183,-4.94312 -0.05799,-1.276154 -0.259654,-2.147666 -0.554628,-2.910313 C 30.888946,11.340389 30.480851,10.671739 29.817517,10.005247 29.154184,9.3386352 28.488702,8.9287168 27.704014,8.622387 26.944981,8.3260084 26.077481,8.1233871 24.807493,8.0651185 23.534762,8.00673 23.128337,7.9929421 19.88768,7.9929421 Z"
     fill="#ffffff"
     id="path4"
     style="stroke-width:1.19609" />
  <path
     d="m 19.893527,13.831072 c -3.384206,0 -6.127512,2.756369 -6.127512,6.15669 0,3.400321 2.743306,6.15669 6.127512,6.15669 3.384206,0 6.127632,-2.756369 6.127632,-6.15669 0,-3.400321 -2.743426,-6.15669 -6.127632,-6.15669 z m 0,10.153125 c -2.196673,0 -3.977495,-1.789301 -3.977495,-3.996435 0,-2.207133 1.780822,-3.996435 3.977495,-3.996435 2.196793,0 3.977496,1.789302 3.977496,3.996435 0,2.207134 -1.780703,3.996435 -3.977496,3.996435 z"
     fill="#ffffff"
     id="path6"
     style="stroke-width:1.19609" />
  <path
     d="m 27.69423,13.58433 c 0,0.794539 -0.64102,1.438731 -1.431913,1.438731 -0.790774,0 -1.431913,-0.644192 -1.431913,-1.438731 0,-0.794659 0.641139,-1.438851 1.431913,-1.438851 0.790893,0 1.431913,0.644192 1.431913,1.438851 z"
     fill="#ffffff"
     id="path8"
     style="stroke-width:1.19609" />
</svg>
