<svg width="76" height="34" viewBox="0 0 76 34" fill="none" xmlns="http://www.w3.org/2000/svg">
<g clip-path="url(#clip0_2_989)">
<path d="M47.8435 27.1146C27.6875 31.9586 9.79406 29.0216 7.88737 20.5552C6.41556 14.0244 14.8852 6.10911 28.0865 0.608215C10.9172 6.36617 -0.767335 16.0574 0.995593 23.8753C3.0173 32.8457 21.9746 35.9574 43.331 30.8245C57.9143 27.3196 69.8486 20.8745 75.3081 14.2832C69.4371 19.485 59.5442 24.302 47.8435 27.1146Z" fill="#FF0000"/>
<path d="M46.909 4.6944H50.8967C51.425 4.6944 51.8204 4.82713 52.0791 5.09764C52.3433 5.36311 52.4745 5.76635 52.4745 6.30904L52.2966 18.912L58.8128 4.69608H62.9676L63.2623 18.5894L68.605 6.85174C68.6859 6.63836 68.7362 6.47202 68.7668 6.35777C68.7973 6.23848 68.8117 6.12927 68.8117 6.03014C68.8117 5.80667 68.7362 5.62689 68.5889 5.48912C68.4415 5.3463 68.233 5.26062 67.9635 5.22365L68.0857 4.69608H71.7122C72.1794 4.69608 72.5244 4.74816 72.7491 4.85737C72.9719 4.96154 73.0851 5.12788 73.0851 5.35135C73.0851 5.45048 73.06 5.57481 73.0097 5.72602C72.9647 5.87388 72.8731 6.08222 72.7455 6.34769L63.8733 24.4348H60.8417C60.3547 24.4348 60.0186 24.3306 59.8353 24.1206C59.652 23.9122 59.5604 23.4754 59.5604 22.805L59.4543 10.5632L53.1772 24.4331H49.9478C49.5525 24.4331 49.247 24.3474 49.0385 24.176C48.83 24.0046 48.7186 23.7442 48.6989 23.4015L47.998 7.10041C47.9674 6.4317 47.8668 5.96965 47.6889 5.7193C47.5056 5.47232 47.1965 5.31102 46.749 5.23541L46.909 4.6944ZM36.4824 4.6944H43.0848C42.8458 6.05702 42.5762 6.90719 42.2779 7.2533C41.9724 7.59438 41.4297 7.76576 40.648 7.76576H37.8194C36.8597 7.76576 36.1535 7.88841 35.7006 8.13539C35.2478 8.37734 34.8776 8.81922 34.5936 9.45097C34.3654 9.92982 34.1066 10.6103 33.8263 11.4873C33.5423 12.361 33.2674 13.3255 32.9978 14.3739C32.6528 15.7651 32.4282 16.7664 32.3275 17.3848C32.2305 18.0014 32.1802 18.5474 32.1802 19.0179C32.1802 19.9907 32.4246 20.646 32.9116 20.9736C33.3932 21.3012 34.5415 21.4676 36.344 21.4676C37.6954 21.4676 38.655 21.3768 39.2337 21.1971C39.8069 21.0173 40.2095 20.6981 40.4377 20.2427H41.0775C40.8385 21.3012 40.6156 22.1094 40.4018 22.6689C40.1879 23.2301 39.9543 23.6283 39.7063 23.8601C39.4008 24.1256 38.8832 24.3155 38.1626 24.4297C37.4366 24.5389 36.2685 24.5961 34.6475 24.5961C33.1793 24.5961 32.1442 24.544 31.5386 24.4348C30.9348 24.3306 30.3957 24.1458 29.9176 23.8887C29.1144 23.4619 28.5159 22.8638 28.1242 22.0943C27.7324 21.3248 27.5347 20.357 27.5347 19.1842C27.5347 18.8331 27.5599 18.4433 27.6102 18.0165C27.6551 17.5931 27.7378 17.1008 27.8492 16.5447C28.1026 15.2728 28.3919 14.0748 28.7082 12.9508C29.0281 11.82 29.348 10.8472 29.6786 10.0205C30.4819 8.05474 31.3948 6.67364 32.421 5.8806C33.4561 5.08924 34.8057 4.6944 36.4824 4.6944ZM15.5788 4.6944H20.2656C20.5855 4.6944 20.8191 4.74648 20.9808 4.85569C21.139 4.95986 21.2198 5.11612 21.2198 5.3211C21.2198 5.38327 21.209 5.45888 21.1947 5.53952C21.1803 5.62521 21.1587 5.7109 21.1282 5.79155L17.0973 21.3046H22.9881C23.4662 21.3046 23.8202 21.234 24.0538 21.0963C24.2874 20.9585 24.4653 20.7115 24.5965 20.3603H25.1446L24.6217 22.8907C24.5156 23.4468 24.2964 23.845 23.9711 24.0786C23.6405 24.3155 23.1391 24.4348 22.467 24.4348H13.1096C12.779 24.4348 12.5202 24.3541 12.3279 24.1928C12.1356 24.0315 12.0386 23.8181 12.0386 23.556C12.0386 23.5039 12.044 23.4334 12.0583 23.351C12.0745 23.2654 12.1033 23.1511 12.1392 22.9999L16.4252 6.40481C16.4558 6.30568 16.4702 6.23344 16.4755 6.19647C16.4809 6.15783 16.4863 6.12086 16.4863 6.08726C16.4863 5.8638 16.3893 5.67394 16.2024 5.52272C16.0137 5.37151 15.7549 5.2707 15.4297 5.22365L15.5788 4.6944Z" fill="#1F1A17"/>
</g>
<defs>
<clipPath id="clip0_2_989">
<rect width="76" height="34" fill="white"/>
</clipPath>
</defs>
</svg>
