<?xml version="1.0" encoding="utf-8"?>
<!-- Generator: Adobe Illustrator 24.1.2, SVG Export Plug-In . SVG Version: 6.00 Build 0)  -->
<svg version="1.1" id="Layer_1" xmlns="http://www.w3.org/2000/svg" xmlns:xlink="http://www.w3.org/1999/xlink" x="0px" y="0px"
	 viewBox="0 0 76 34" style="enable-background:new 0 0 76 34;" xml:space="preserve">
<style type="text/css">
	.st0{fill:#FF0000;}
	.st1{display:none;}
	.st2{display:inline;fill:#FFFFFF;}
	.st3{fill:#1F1A17;}
</style>
<g>
	<path class="st0" d="M20.2,3.7L20.2,3.7c0.5,0,0.8,0.1,1,0.2c2.1-1.2,4.4-2.3,6.8-3.3C25.3,1.5,22.7,2.6,20.2,3.7z"/>
	<path class="st0" d="M59.1,24.8c-0.2-0.2-0.4-0.6-0.4-1c-3.4,1.3-7,2.4-10.8,3.3c-0.1,0-0.2,0-0.3,0.1c0.3,0.1,0.5,0.1,0.7,0.3
		c0.4-0.2,0.9-0.4,1.3-0.4c0.8,0,1.3,0.3,1.5,0.6c0.2,0.2,0.3,0.4,0.4,0.7c2.9-1,5.6-2.1,8.1-3.2C59.4,25.1,59.2,25,59.1,24.8z"/>
	<path class="st0" d="M67.3,19.8l-0.9,1.8c3.8-2.3,6.9-4.8,9-7.4C73.1,16.2,70.4,18.1,67.3,19.8z"/>
	<path class="st0" d="M7.9,20.6C7,16.6,9.7,12.2,15,8l0.5-1.8c0,0-0.1,0-0.1,0l-0.1,0C5.5,11.6-0.3,18.2,1,23.9
		c2,8.9,20.9,12.1,42.1,7l0.5-2.8l0,0C25.3,31.5,9.7,28.4,7.9,20.6z"/>
</g>
<g>
	<g class="st1">
		<path class="st2" d="M48,33c0,0,0.6-3.2,0.6-3.3c0,0-0.1,0.1-0.1,0.1c-0.1,0.1-0.2,0.3-0.3,0.9L47.8,33h-2.1l0.7-2
			c0-0.1,0-0.1,0-0.2c0,0-0.1,0.1-0.1,0.1c-0.1,0.1-0.1,0.2-0.2,0.3c0,0.1-0.1,0.3-0.1,0.6l0,0.1L45.5,33h-2l1-5.1h1.9
			c0.2-0.1,0.4-0.1,0.6-0.1c0.4,0,0.7,0.1,1,0.3c0,0,0.1,0.1,0.1,0.1c0.1,0,0.1-0.1,0.2-0.1c0.3-0.2,0.7-0.3,1-0.3
			c0.4,0,0.8,0.1,1.1,0.4c0.3,0.3,0.4,0.6,0.4,1c0,0.2,0,0.4-0.1,0.8L50.1,33H48z"/>
		<path class="st2" d="M49.3,28.3c0.3,0,0.5,0.1,0.7,0.3c0.2,0.2,0.3,0.4,0.3,0.7c0,0.1,0,0.4-0.1,0.7l-0.5,2.5h-1l0.5-2.5
			c0.1-0.3,0.1-0.5,0.1-0.5c0-0.1,0-0.2-0.1-0.3c-0.1-0.1-0.2-0.1-0.3-0.1c-0.3,0-0.5,0.1-0.7,0.4c-0.1,0.2-0.3,0.6-0.4,1.1
			l-0.4,1.9h-1l0.5-1.4c0.1-0.3,0.1-0.5,0.1-0.6c0-0.1,0-0.2-0.1-0.3c-0.1-0.1-0.2-0.1-0.3-0.1c-0.1,0-0.2,0-0.3,0.1
			c-0.1,0.1-0.2,0.2-0.3,0.3c-0.1,0.1-0.2,0.3-0.2,0.5c0,0.1-0.1,0.3-0.1,0.6l-0.4,0.8h-1l0.8-4.1h1l-0.1,0.5
			c0.4-0.4,0.8-0.6,1.2-0.6c0.3,0,0.5,0.1,0.7,0.2c0.2,0.1,0.3,0.3,0.3,0.5c0.1-0.2,0.3-0.4,0.6-0.5C48.8,28.4,49,28.3,49.3,28.3
			 M49.3,27.3c-0.4,0-0.8,0.1-1.2,0.3c-0.3-0.2-0.7-0.3-1.1-0.3c-0.2,0-0.4,0-0.7,0.1h-0.4h-1h-0.8L44,28.2l-0.8,4.1l-0.2,1.2h1.2h1
			h0.6h0.6h1h0.8h0.4h1h0.8l0.2-0.8l0.5-2.5c0.1-0.4,0.1-0.7,0.1-0.9c0-0.5-0.2-1-0.5-1.4C50.5,27.6,50,27.3,49.3,27.3L49.3,27.3z"
			/>
	</g>
	<path d="M44.6,28.5h1.1l-0.1,0.6c0.4-0.5,0.9-0.7,1.4-0.7c0.3,0,0.6,0.1,0.8,0.2c0.2,0.1,0.3,0.4,0.3,0.6c0.2-0.2,0.4-0.4,0.6-0.6
		c0.3-0.2,0.6-0.2,0.9-0.2c0.3,0,0.6,0.1,0.8,0.3c0.2,0.2,0.3,0.5,0.3,0.8c0,0.2,0,0.4-0.1,0.9l-0.6,2.9h-1.2l0.6-2.9
		c0.1-0.4,0.1-0.6,0.1-0.6c0-0.1,0-0.2-0.1-0.3c-0.1-0.1-0.2-0.1-0.3-0.1c-0.3,0-0.6,0.2-0.8,0.5c-0.2,0.2-0.3,0.7-0.4,1.3l-0.4,2.2
		h-1.2l0.5-2.9c0.1-0.3,0.1-0.5,0.1-0.6c0-0.1,0-0.2-0.1-0.3c-0.1-0.1-0.2-0.1-0.3-0.1c-0.1,0-0.3,0-0.4,0.1
		c-0.1,0.1-0.3,0.2-0.4,0.3c-0.1,0.1-0.2,0.3-0.3,0.6c0,0.1-0.1,0.4-0.2,0.7l-0.4,2.2h-1.2L44.6,28.5z"/>
	<path d="M51.4,31.3c0-0.9,0.2-1.6,0.7-2.1c0.5-0.5,1.1-0.8,1.8-0.8c0.6,0,1.1,0.2,1.5,0.6c0.4,0.4,0.5,0.9,0.5,1.6
		c0,0.8-0.2,1.4-0.7,2c-0.5,0.6-1.1,0.8-1.8,0.8c-0.4,0-0.8-0.1-1.1-0.3c-0.3-0.2-0.6-0.4-0.7-0.8C51.5,32,51.4,31.7,51.4,31.3z
		 M54.8,30.4c0-0.3-0.1-0.6-0.2-0.7c-0.2-0.2-0.4-0.3-0.6-0.3c-0.3,0-0.5,0.1-0.7,0.3c-0.2,0.2-0.3,0.4-0.5,0.8
		c-0.1,0.3-0.2,0.6-0.2,0.9c0,0.3,0.1,0.6,0.3,0.8c0.2,0.2,0.4,0.3,0.6,0.3c0.3,0,0.6-0.2,0.8-0.5C54.6,31.5,54.8,31,54.8,30.4z"/>
	<path d="M56.7,29.4l0.2-1h0.6l0.1-0.8l1.3-0.9l-0.3,1.7h0.7l-0.2,1h-0.7l-0.4,2c-0.1,0.4-0.1,0.6-0.1,0.6c0,0.1,0,0.2,0.1,0.2
		c0.1,0.1,0.2,0.1,0.3,0.1c0.1,0,0.2,0,0.4,0l-0.2,1c-0.2,0-0.4,0.1-0.6,0.1c-0.4,0-0.7-0.1-0.9-0.3c-0.2-0.2-0.3-0.4-0.3-0.7
		c0-0.1,0.1-0.5,0.2-1l0.4-1.9H56.7z"/>
	<path d="M59.3,31.3c0-0.9,0.2-1.6,0.7-2.1c0.5-0.5,1.1-0.8,1.8-0.8c0.6,0,1.1,0.2,1.5,0.6c0.4,0.4,0.5,0.9,0.5,1.6
		c0,0.8-0.2,1.4-0.7,2c-0.5,0.6-1.1,0.8-1.8,0.8c-0.4,0-0.8-0.1-1.1-0.3c-0.3-0.2-0.6-0.4-0.7-0.8C59.4,32,59.3,31.7,59.3,31.3z
		 M62.7,30.4c0-0.3-0.1-0.6-0.2-0.7c-0.2-0.2-0.4-0.3-0.6-0.3c-0.3,0-0.5,0.1-0.7,0.3c-0.2,0.2-0.3,0.4-0.5,0.8
		c-0.1,0.3-0.2,0.6-0.2,0.9c0,0.3,0.1,0.6,0.3,0.8c0.2,0.2,0.4,0.3,0.6,0.3c0.3,0,0.6-0.2,0.8-0.5C62.5,31.5,62.7,31,62.7,30.4z"/>
	<path d="M64.1,31.9l1.1-0.2c0.1,0.3,0.2,0.5,0.4,0.6c0.1,0.1,0.4,0.2,0.6,0.2c0.3,0,0.5-0.1,0.6-0.2c0.1-0.1,0.2-0.2,0.2-0.3
		c0-0.1,0-0.2-0.1-0.2c-0.1-0.1-0.2-0.1-0.5-0.2c-0.7-0.3-1.2-0.5-1.3-0.6c-0.3-0.2-0.4-0.5-0.4-0.9c0-0.4,0.1-0.7,0.4-1
		c0.4-0.4,0.9-0.6,1.6-0.6c0.6,0,1,0.1,1.3,0.3c0.3,0.2,0.5,0.5,0.5,0.9l-1.1,0.2c-0.1-0.2-0.2-0.3-0.3-0.4
		c-0.2-0.1-0.4-0.2-0.6-0.2c-0.2,0-0.4,0-0.5,0.1c-0.1,0.1-0.2,0.2-0.2,0.3c0,0.1,0.1,0.2,0.2,0.3c0.1,0,0.3,0.1,0.7,0.3
		c0.6,0.2,1,0.4,1.2,0.5c0.3,0.2,0.4,0.5,0.4,0.9c0,0.5-0.2,0.8-0.5,1.2c-0.3,0.3-0.8,0.5-1.5,0.5c-0.6,0-1.1-0.1-1.5-0.4
		C64.5,32.7,64.3,32.4,64.1,31.9z"/>
</g>
<g>
	<path class="st3" d="M46.9,4.7h4c0.5,0,0.9,0.1,1.2,0.4c0.3,0.3,0.4,0.7,0.4,1.2l-0.2,12.6l6.5-14.2H63l0.3,13.9l5.3-11.7
		c0.1-0.2,0.1-0.4,0.2-0.5c0-0.1,0-0.2,0-0.3c0-0.2-0.1-0.4-0.2-0.5c-0.1-0.1-0.4-0.2-0.6-0.3l0.1-0.5h3.6c0.5,0,0.8,0.1,1,0.2
		c0.2,0.1,0.3,0.3,0.3,0.5c0,0.1,0,0.2-0.1,0.4c0,0.1-0.1,0.4-0.3,0.6l-8.9,18.1h-3c-0.5,0-0.8-0.1-1-0.3c-0.2-0.2-0.3-0.6-0.3-1.3
		l-0.1-12.2l-6.3,13.9H50c-0.4,0-0.7-0.1-0.9-0.3s-0.3-0.4-0.3-0.8L48,7.1c0-0.7-0.1-1.1-0.3-1.4c-0.2-0.2-0.5-0.4-0.9-0.5L46.9,4.7
		z M36.5,4.7h6.6c-0.2,1.4-0.5,2.2-0.8,2.6c-0.3,0.3-0.8,0.5-1.6,0.5h-2.8c-1,0-1.7,0.1-2.1,0.4c-0.5,0.2-0.8,0.7-1.1,1.3
		c-0.2,0.5-0.5,1.2-0.8,2c-0.3,0.9-0.6,1.8-0.8,2.9c-0.3,1.4-0.6,2.4-0.7,3c-0.1,0.6-0.1,1.2-0.1,1.6c0,1,0.2,1.6,0.7,2
		c0.5,0.3,1.6,0.5,3.4,0.5c1.4,0,2.3-0.1,2.9-0.3c0.6-0.2,1-0.5,1.2-1h0.6c-0.2,1.1-0.5,1.9-0.7,2.4c-0.2,0.6-0.4,1-0.7,1.2
		c-0.3,0.3-0.8,0.5-1.5,0.6c-0.7,0.1-1.9,0.2-3.5,0.2c-1.5,0-2.5-0.1-3.1-0.2c-0.6-0.1-1.1-0.3-1.6-0.5c-0.8-0.4-1.4-1-1.8-1.8
		c-0.4-0.8-0.6-1.7-0.6-2.9c0-0.4,0-0.7,0.1-1.2c0-0.4,0.1-0.9,0.2-1.5c0.3-1.3,0.5-2.5,0.9-3.6c0.3-1.1,0.6-2.1,1-2.9
		c0.8-2,1.7-3.3,2.7-4.1C33.5,5.1,34.8,4.7,36.5,4.7z M15.6,4.7h4.7c0.3,0,0.6,0.1,0.7,0.2c0.2,0.1,0.2,0.3,0.2,0.5
		c0,0.1,0,0.1,0,0.2c0,0.1,0,0.2-0.1,0.3l-4,15.5H23c0.5,0,0.8-0.1,1.1-0.2c0.2-0.1,0.4-0.4,0.5-0.7h0.5l-0.5,2.5
		c-0.1,0.6-0.3,1-0.7,1.2c-0.3,0.2-0.8,0.4-1.5,0.4h-9.4c-0.3,0-0.6-0.1-0.8-0.2c-0.2-0.2-0.3-0.4-0.3-0.6c0-0.1,0-0.1,0-0.2
		c0-0.1,0-0.2,0.1-0.4l4.3-16.6c0-0.1,0-0.2,0.1-0.2c0,0,0-0.1,0-0.1c0-0.2-0.1-0.4-0.3-0.6c-0.2-0.2-0.4-0.3-0.8-0.3L15.6,4.7z"/>
</g>
</svg>
