<?xml version="1.0" encoding="utf-8"?>
<!-- Generator: Adobe Illustrator 24.1.2, SVG Export Plug-In . SVG Version: 6.00 Build 0)  -->
<svg version="1.1" id="Layer_1" xmlns="http://www.w3.org/2000/svg" xmlns:xlink="http://www.w3.org/1999/xlink" x="0px" y="0px"
	 viewBox="0 0 76 34" style="enable-background:new 0 0 76 34;" xml:space="preserve">
<style type="text/css">
	.st0{fill:#FF0000;}
	.st1{display:none;}
	.st2{display:inline;fill:#FFFFFF;}
	.st3{fill:#FFFFFF;}
</style>
<g>
	<path class="st0" d="M19.8,3.5L19.8,3.5c0.5,0,0.8,0.1,1.1,0.2c2.1-1.2,4.5-2.3,7-3.4C25,1.3,22.3,2.4,19.8,3.5z"/>
	<path class="st0" d="M59.4,25c-0.2-0.3-0.4-0.6-0.4-1c-3.4,1.3-7.1,2.5-11,3.4c-0.1,0-0.2,0-0.3,0.1c0.3,0.1,0.5,0.1,0.7,0.3
		c0.4-0.2,0.9-0.4,1.4-0.4c0.8,0,1.3,0.3,1.6,0.6c0.2,0.2,0.3,0.5,0.4,0.7c2.9-1,5.7-2.1,8.3-3.3C59.8,25.4,59.6,25.2,59.4,25z"/>
	<path class="st0" d="M67.8,20l-0.9,1.9c3.9-2.4,7-4.9,9.1-7.5C73.8,16.3,71,18.2,67.8,20z"/>
	<path class="st0" d="M7.2,20.7c-0.9-4,1.9-8.6,7.2-12.8l0.5-1.8c0,0-0.1,0-0.2,0l-0.1,0c-9.9,5.5-15.8,12.3-14.5,18
		c2.1,9.1,21.3,12.3,43,7.1l0.6-2.9l0,0C24.9,31.9,9,28.8,7.2,20.7z"/>
</g>
<g>
	<g class="st1">
		<path class="st2" d="M48.2,33.4c0,0,0.6-3.3,0.7-3.4c0,0-0.1,0.1-0.1,0.2c-0.1,0.1-0.2,0.3-0.3,0.9L48,33.4h-2.2l0.7-2.1
			c0-0.1,0-0.2,0-0.2c-0.1,0-0.1,0.1-0.1,0.1c-0.1,0.1-0.1,0.2-0.2,0.4c0,0.1-0.1,0.3-0.1,0.6l0,0.1l-0.5,1.1h-2l1-5.2h1.9
			c0.2-0.1,0.4-0.1,0.6-0.1c0.4,0,0.7,0.1,1,0.3c0,0,0.1,0.1,0.1,0.1c0.1,0,0.1-0.1,0.2-0.1c0.3-0.2,0.7-0.3,1-0.3
			c0.4,0,0.8,0.1,1.1,0.4c0.3,0.3,0.4,0.6,0.4,1.1c0,0.2,0,0.4-0.1,0.8l-0.6,2.9H48.2z M48.9,29.8C48.9,29.8,48.9,29.8,48.9,29.8z"
			/>
		<path class="st2" d="M49.5,28.6c0.3,0,0.6,0.1,0.7,0.3s0.3,0.4,0.3,0.7c0,0.1,0,0.4-0.1,0.7l-0.5,2.5h-1.1l0.5-2.5
			c0.1-0.3,0.1-0.5,0.1-0.5c0-0.1,0-0.2-0.1-0.3c-0.1-0.1-0.2-0.1-0.3-0.1c-0.3,0-0.5,0.1-0.7,0.4c-0.1,0.2-0.3,0.6-0.4,1.1
			l-0.4,1.9h-1.1l0.5-1.4c0.1-0.3,0.1-0.5,0.1-0.6c0-0.1,0-0.2-0.1-0.3c-0.1-0.1-0.2-0.1-0.3-0.1c-0.1,0-0.2,0-0.4,0.1
			c-0.1,0.1-0.2,0.2-0.3,0.3c-0.1,0.1-0.2,0.3-0.2,0.5c0,0.1-0.1,0.3-0.1,0.6l-0.4,0.8h-1.1l0.8-4.2h1l-0.1,0.5
			c0.4-0.4,0.8-0.6,1.2-0.6c0.3,0,0.5,0.1,0.7,0.2c0.2,0.1,0.3,0.3,0.3,0.5c0.1-0.2,0.3-0.4,0.6-0.5C48.9,28.7,49.2,28.6,49.5,28.6
			 M49.5,27.6c-0.4,0-0.8,0.1-1.2,0.3c-0.3-0.2-0.7-0.3-1.1-0.3c-0.2,0-0.5,0-0.7,0.1H46h-1h-0.8L44,28.5l-0.8,4.2L43,33.9h1.2h1.1
			h0.6h0.6h1.1h0.8h0.4h1.1h0.8l0.2-0.8l0.5-2.5c0.1-0.4,0.1-0.7,0.1-0.9c0-0.6-0.2-1-0.5-1.4C50.6,27.9,50.2,27.6,49.5,27.6
			L49.5,27.6z"/>
	</g>
	<path class="st3" d="M44.7,28.8h1.1l-0.1,0.6c0.4-0.5,0.9-0.7,1.4-0.7c0.3,0,0.6,0.1,0.8,0.2c0.2,0.2,0.3,0.4,0.3,0.6
		c0.2-0.2,0.4-0.4,0.7-0.6c0.3-0.2,0.6-0.2,0.9-0.2c0.4,0,0.6,0.1,0.8,0.3s0.3,0.5,0.3,0.8c0,0.2,0,0.5-0.1,0.9l-0.6,3H49l0.6-3
		c0.1-0.4,0.1-0.6,0.1-0.6c0-0.1,0-0.2-0.1-0.3c-0.1-0.1-0.2-0.1-0.3-0.1c-0.3,0-0.6,0.2-0.8,0.5c-0.2,0.2-0.3,0.7-0.4,1.3l-0.4,2.2
		h-1.2l0.6-2.9c0.1-0.3,0.1-0.6,0.1-0.7c0-0.1,0-0.2-0.1-0.3c-0.1-0.1-0.2-0.1-0.3-0.1c-0.1,0-0.3,0-0.4,0.1S46,30,45.8,30.1
		c-0.1,0.1-0.2,0.3-0.3,0.6c0,0.1-0.1,0.4-0.2,0.7L45,33.7h-1.2L44.7,28.8z"/>
	<path class="st3" d="M51.6,31.7c0-0.9,0.2-1.6,0.7-2.2c0.5-0.5,1.1-0.8,1.8-0.8c0.7,0,1.2,0.2,1.5,0.6c0.4,0.4,0.6,0.9,0.6,1.6
		c0,0.8-0.2,1.5-0.7,2c-0.5,0.6-1.1,0.9-1.8,0.9c-0.4,0-0.8-0.1-1.1-0.3c-0.3-0.2-0.6-0.4-0.7-0.8C51.7,32.4,51.6,32,51.6,31.7z
		 M55,30.7c0-0.3-0.1-0.6-0.2-0.8c-0.2-0.2-0.4-0.3-0.6-0.3c-0.3,0-0.5,0.1-0.7,0.3c-0.2,0.2-0.4,0.4-0.5,0.8
		c-0.1,0.3-0.2,0.6-0.2,0.9c0,0.3,0.1,0.6,0.3,0.8s0.4,0.3,0.7,0.3c0.3,0,0.6-0.2,0.8-0.5C54.9,31.9,55,31.3,55,30.7z"/>
	<path class="st3" d="M57,29.8l0.2-1h0.6l0.1-0.8l1.4-0.9l-0.3,1.7h0.7l-0.2,1h-0.7l-0.4,2c-0.1,0.4-0.1,0.6-0.1,0.6
		c0,0.1,0,0.2,0.1,0.2c0.1,0.1,0.2,0.1,0.3,0.1c0.1,0,0.2,0,0.4,0l-0.2,1c-0.2,0-0.4,0.1-0.6,0.1c-0.4,0-0.7-0.1-0.9-0.3
		c-0.2-0.2-0.3-0.4-0.3-0.7c0-0.1,0.1-0.5,0.2-1l0.4-2H57z"/>
	<path class="st3" d="M59.7,31.7c0-0.9,0.2-1.6,0.7-2.2c0.5-0.5,1.1-0.8,1.8-0.8c0.7,0,1.2,0.2,1.5,0.6c0.4,0.4,0.6,0.9,0.6,1.6
		c0,0.8-0.2,1.5-0.7,2c-0.5,0.6-1.1,0.9-1.8,0.9c-0.4,0-0.8-0.1-1.1-0.3c-0.3-0.2-0.6-0.4-0.7-0.8C59.8,32.4,59.7,32,59.7,31.7z
		 M63.1,30.7c0-0.3-0.1-0.6-0.2-0.8c-0.2-0.2-0.4-0.3-0.6-0.3c-0.3,0-0.5,0.1-0.7,0.3c-0.2,0.2-0.4,0.4-0.5,0.8
		c-0.1,0.3-0.2,0.6-0.2,0.9c0,0.3,0.1,0.6,0.3,0.8s0.4,0.3,0.7,0.3c0.3,0,0.6-0.2,0.8-0.5C63,31.9,63.1,31.3,63.1,30.7z"/>
	<path class="st3" d="M64.6,32.3l1.2-0.2c0.1,0.3,0.2,0.5,0.4,0.6c0.2,0.1,0.4,0.2,0.6,0.2c0.3,0,0.5-0.1,0.7-0.2
		c0.1-0.1,0.2-0.2,0.2-0.3c0-0.1,0-0.2-0.1-0.2c-0.1-0.1-0.2-0.1-0.5-0.2c-0.7-0.3-1.2-0.5-1.3-0.6c-0.3-0.2-0.4-0.6-0.4-0.9
		s0.1-0.7,0.4-1c0.4-0.4,0.9-0.6,1.6-0.6c0.6,0,1,0.1,1.3,0.3c0.3,0.2,0.5,0.5,0.6,0.9L68,30.2c-0.1-0.2-0.2-0.3-0.3-0.4
		c-0.2-0.1-0.4-0.2-0.6-0.2c-0.3,0-0.4,0-0.5,0.1c-0.1,0.1-0.2,0.2-0.2,0.3c0,0.1,0.1,0.2,0.2,0.3c0.1,0,0.3,0.1,0.7,0.3
		c0.6,0.2,1,0.4,1.2,0.6c0.3,0.3,0.4,0.6,0.4,0.9c0,0.5-0.2,0.9-0.5,1.2c-0.4,0.3-0.9,0.5-1.5,0.5c-0.6,0-1.1-0.1-1.5-0.4
		C65,33.1,64.7,32.8,64.6,32.3z"/>
</g>
<g>
	<path class="st3" d="M47,4.5h4.1c0.5,0,0.9,0.1,1.2,0.4c0.3,0.3,0.4,0.7,0.4,1.2L52.5,19l6.6-14.5h4.2l0.3,14.2l5.5-12
		c0.1-0.2,0.1-0.4,0.2-0.5c0-0.1,0-0.2,0-0.3c0-0.2-0.1-0.4-0.2-0.6c-0.2-0.1-0.4-0.2-0.6-0.3l0.1-0.5h3.7c0.5,0,0.8,0.1,1.1,0.2
		c0.2,0.1,0.3,0.3,0.3,0.5c0,0.1,0,0.2-0.1,0.4c0,0.2-0.1,0.4-0.3,0.6l-9.1,18.5h-3.1c-0.5,0-0.8-0.1-1-0.3C60,24.1,60,23.7,60,23
		l-0.1-12.5l-6.4,14.2h-3.3c-0.4,0-0.7-0.1-0.9-0.3c-0.2-0.2-0.3-0.4-0.3-0.8L48.2,7c0-0.7-0.1-1.2-0.3-1.4c-0.2-0.3-0.5-0.4-1-0.5
		L47,4.5z M36.4,4.5h6.7c-0.2,1.4-0.5,2.3-0.8,2.6c-0.3,0.3-0.9,0.5-1.7,0.5h-2.9c-1,0-1.7,0.1-2.2,0.4c-0.5,0.2-0.8,0.7-1.1,1.3
		c-0.2,0.5-0.5,1.2-0.8,2.1c-0.3,0.9-0.6,1.9-0.8,2.9c-0.4,1.4-0.6,2.4-0.7,3.1c-0.1,0.6-0.2,1.2-0.2,1.7c0,1,0.2,1.7,0.7,2
		c0.5,0.3,1.7,0.5,3.5,0.5c1.4,0,2.4-0.1,2.9-0.3c0.6-0.2,1-0.5,1.2-1h0.7c-0.2,1.1-0.5,1.9-0.7,2.5c-0.2,0.6-0.5,1-0.7,1.2
		c-0.3,0.3-0.8,0.5-1.6,0.6c-0.7,0.1-1.9,0.2-3.6,0.2c-1.5,0-2.6-0.1-3.2-0.2c-0.6-0.1-1.2-0.3-1.7-0.6c-0.8-0.4-1.4-1-1.8-1.8
		c-0.4-0.8-0.6-1.8-0.6-3c0-0.4,0-0.8,0.1-1.2c0-0.4,0.1-0.9,0.2-1.5c0.3-1.3,0.6-2.5,0.9-3.7c0.3-1.2,0.7-2.1,1-3
		c0.8-2,1.8-3.4,2.8-4.2C33.3,4.9,34.7,4.5,36.4,4.5z M15.1,4.5h4.8c0.3,0,0.6,0.1,0.7,0.2c0.2,0.1,0.2,0.3,0.2,0.5
		c0,0.1,0,0.1,0,0.2c0,0.1,0,0.2-0.1,0.3l-4.1,15.8h6c0.5,0,0.8-0.1,1.1-0.2c0.2-0.1,0.4-0.4,0.6-0.8h0.6l-0.5,2.6
		c-0.1,0.6-0.3,1-0.7,1.2c-0.3,0.2-0.8,0.4-1.5,0.4h-9.5c-0.3,0-0.6-0.1-0.8-0.2c-0.2-0.2-0.3-0.4-0.3-0.6c0-0.1,0-0.1,0-0.2
		c0-0.1,0-0.2,0.1-0.4l4.4-16.9c0-0.1,0-0.2,0.1-0.2c0,0,0-0.1,0-0.1c0-0.2-0.1-0.4-0.3-0.6c-0.2-0.2-0.5-0.3-0.8-0.3L15.1,4.5z"/>
</g>
</svg>
