<svg width="78" height="30" viewBox="0 0 78 30" fill="none" xmlns="http://www.w3.org/2000/svg">
<path d="M49.2405 24.5078C28.1343 28.8099 9.39721 26.2015 7.40062 18.6821C5.85943 12.8818 14.7283 5.85189 28.552 0.966309C10.5733 6.0802 -1.66212 14.6874 0.183928 21.6308C2.30095 29.5978 22.152 32.3615 44.5153 27.8027C59.7861 24.6899 72.2831 18.9657 78 13.1116C71.8522 17.7316 61.4929 22.0098 49.2405 24.5078Z" fill="#FF0000"/>
<path d="M48.2624 4.59546H52.4381C52.9914 4.59546 53.4054 4.71335 53.6764 4.9536C53.953 5.18937 54.0904 5.5475 54.0904 6.0295L53.9041 17.2228L60.7275 4.59695H65.0782L65.3868 16.9362L70.9814 6.51149C71.0661 6.32197 71.1188 6.17424 71.1507 6.07277C71.1827 5.96682 71.1978 5.86983 71.1978 5.78179C71.1978 5.58332 71.1188 5.42365 70.9644 5.30129C70.8101 5.17445 70.5918 5.09834 70.3096 5.06551L70.4375 4.59695H74.235C74.7243 4.59695 75.0856 4.64321 75.3208 4.74021C75.5541 4.83272 75.6727 4.98046 75.6727 5.17892C75.6727 5.26696 75.6464 5.37739 75.5937 5.51169C75.5466 5.64301 75.4506 5.82805 75.317 6.06382L66.0266 22.1277H62.852C62.342 22.1277 61.9902 22.0352 61.7982 21.8487C61.6063 21.6636 61.5103 21.2757 61.5103 20.6803L61.3993 9.80784L54.8261 22.1262H51.4446C51.0306 22.1262 50.7107 22.0501 50.4924 21.8979C50.2741 21.7457 50.1574 21.5144 50.1367 21.21L49.4028 6.73234C49.3708 6.13843 49.2654 5.72807 49.0791 5.50572C48.8872 5.28636 48.5635 5.14311 48.095 5.07596L48.2624 4.59546ZM37.3442 4.59546H44.258C44.0077 5.80566 43.7254 6.56073 43.413 6.86813C43.0931 7.17106 42.5248 7.32327 41.7063 7.32327H38.7443C37.7394 7.32327 36.9999 7.4322 36.5257 7.65156C36.0515 7.86644 35.6638 8.2589 35.3665 8.81998C35.1275 9.24526 34.8565 9.84962 34.563 10.6286C34.2656 11.4045 33.9777 12.2611 33.6954 13.1922C33.3341 14.4278 33.0989 15.3172 32.9935 15.8663C32.8919 16.414 32.8392 16.8989 32.8392 17.3168C32.8392 18.1808 33.0952 18.7627 33.6051 19.0537C34.1094 19.3447 35.3119 19.4924 37.1994 19.4924C38.6145 19.4924 39.6193 19.4119 40.2253 19.2522C40.8256 19.0925 41.2471 18.809 41.4861 18.4046H42.156C41.9057 19.3447 41.6724 20.0625 41.4485 20.5594C41.2245 21.0578 40.9799 21.4115 40.7202 21.6174C40.4003 21.8532 39.8583 22.0218 39.1037 22.1233C38.3435 22.2202 37.1203 22.271 35.4229 22.271C33.8855 22.271 32.8016 22.2247 32.1674 22.1277C31.5351 22.0352 30.9706 21.8711 30.47 21.6428C29.6289 21.2637 29.0022 20.7325 28.592 20.049C28.1818 19.3656 27.9748 18.5061 27.9748 17.4645C27.9748 17.1526 28.0011 16.8064 28.0538 16.4274C28.1009 16.0513 28.1874 15.6141 28.3041 15.1202C28.5694 13.9906 28.8724 12.9266 29.2036 11.9283C29.5386 10.924 29.8735 10.06 30.2198 9.32584C31.0609 7.57993 32.0169 6.35331 33.0914 5.64898C34.1753 4.94613 35.5885 4.59546 37.3442 4.59546ZM15.4552 4.59546H20.3629C20.6979 4.59546 20.9425 4.64172 21.1119 4.73871C21.2775 4.83123 21.3621 4.97001 21.3621 5.15206C21.3621 5.20728 21.3509 5.27443 21.3358 5.34605C21.3208 5.42216 21.2982 5.49826 21.2662 5.56989L17.0453 19.3477H23.2138C23.7144 19.3477 24.0851 19.285 24.3297 19.1627C24.5744 19.0403 24.7607 18.8209 24.898 18.5091H25.472L24.9244 20.7564C24.8134 21.2503 24.5838 21.604 24.2432 21.8114C23.8969 22.0218 23.3719 22.1277 22.6681 22.1277H12.8696C12.5233 22.1277 12.2524 22.0561 12.051 21.9128C11.8497 21.7696 11.748 21.5801 11.748 21.3473C11.748 21.301 11.7537 21.2384 11.7687 21.1652C11.7857 21.0891 11.8158 20.9877 11.8534 20.8534L16.3415 6.11455C16.3735 6.02651 16.3886 5.96235 16.3942 5.92952C16.3998 5.8952 16.4055 5.86237 16.4055 5.83252C16.4055 5.63405 16.3039 5.46543 16.1082 5.33113C15.9106 5.19683 15.6396 5.1073 15.299 5.06551L15.4552 4.59546Z" fill="white"/>
</svg>
