<svg width="27" height="27" viewBox="0 0 27 27" fill="none" xmlns="http://www.w3.org/2000/svg">
<path d="M13.175 0.324951C5.89787 0.324951 0 6.22282 0 13.5C0 20.7771 5.89787 26.675 13.175 26.675C20.4521 26.675 26.35 20.7771 26.35 13.5C26.35 6.22282 20.4521 0.324951 13.175 0.324951ZM9.49012 19.0118H6.92202V10.7929H9.49012V19.0118ZM8.13659 9.7636H8.11601C7.18449 9.7636 6.58235 9.13573 6.58235 8.33803C6.58235 7.52488 7.20508 6.91245 8.15203 6.91245C9.09898 6.91245 9.68054 7.52488 9.70112 8.33803C9.70627 9.13059 9.10413 9.7636 8.13659 9.7636ZM19.7625 19.0118H16.8496V14.7608C16.8496 13.6492 16.3967 12.8875 15.3931 12.8875C14.6263 12.8875 14.1992 13.4022 14.0036 13.8962C13.9315 14.0712 13.9418 14.3182 13.9418 14.5704V19.0118H11.0546C11.0546 19.0118 11.0907 11.4774 11.0546 10.7929H13.9418V12.0847C14.1117 11.5186 15.0329 10.7157 16.5048 10.7157C18.3318 10.7157 19.7625 11.8994 19.7625 14.4418V19.0118Z" fill="white"/>
</svg>
