<svg width="34" height="34" viewBox="0 0 34 34" fill="none" xmlns="http://www.w3.org/2000/svg">
<g clip-path="url(#clip0_2_977)">
<path d="M17 0C7.61016 0 0 7.61016 0 17C0 26.3898 7.61016 34 17 34C26.3898 34 34 26.3898 34 17C34 7.61016 26.3898 0 17 0ZM12.2453 24.1121H8.93164V13.507H12.2453V24.1121ZM10.4988 12.1789H10.4723C9.27031 12.1789 8.49336 11.3688 8.49336 10.3395C8.49336 9.29024 9.29688 8.5 10.5187 8.5C11.7406 8.5 12.491 9.29024 12.5176 10.3395C12.5242 11.3621 11.7473 12.1789 10.4988 12.1789ZM25.5 24.1121H21.7414V18.627C21.7414 17.1926 21.157 16.2098 19.8621 16.2098C18.8727 16.2098 18.3215 16.8738 18.0691 17.5113C17.9762 17.7371 17.9895 18.0559 17.9895 18.3812V24.1121H14.2641C14.2641 24.1121 14.3105 14.3902 14.2641 13.507H17.9895V15.1738C18.2086 14.4434 19.3973 13.4074 21.2965 13.4074C23.6539 13.4074 25.5 14.9348 25.5 18.2152V24.1121Z" fill="#14151B"/>
</g>
<defs>
<clipPath id="clip0_2_977">
<rect width="34" height="34" fill="white"/>
</clipPath>
</defs>
</svg>
