<svg width="39" height="39" viewBox="0 0 39 39" fill="none" xmlns="http://www.w3.org/2000/svg">
<rect width="39" height="39" rx="19.5" fill="#14151B"/>
<path d="M18.6416 26.8769C18.6416 26.8769 18.6419 26.8772 19 26.4167L19.3581 26.8772C19.1475 27.041 18.8522 27.0408 18.6416 26.8769Z" fill="white"/>
<path fill-rule="evenodd" clip-rule="evenodd" d="M18.9998 16.5C17.7112 16.5 16.6665 17.5447 16.6665 18.8333C16.6665 20.122 17.7112 21.1667 18.9998 21.1667C20.2885 21.1667 21.3332 20.122 21.3332 18.8333C21.3332 17.5447 20.2885 16.5 18.9998 16.5ZM17.8332 18.8333C17.8332 18.189 18.3555 17.6667 18.9998 17.6667C19.6442 17.6667 20.1665 18.189 20.1665 18.8333C20.1665 19.4777 19.6442 20 18.9998 20C18.3555 20 17.8332 19.4777 17.8332 18.8333Z" fill="white"/>
<path fill-rule="evenodd" clip-rule="evenodd" d="M18.6414 26.8769L18.9998 26.4167C19.3579 26.8772 19.3586 26.8766 19.3586 26.8766L19.3597 26.8758L19.3633 26.873L19.3761 26.8629C19.3871 26.8542 19.4029 26.8417 19.4232 26.8255C19.4638 26.793 19.5226 26.7455 19.5968 26.6842C19.7451 26.5618 19.9556 26.384 20.2077 26.1599C20.711 25.7126 21.3837 25.0774 22.0584 24.3278C22.7314 23.58 23.4175 22.7061 23.9379 21.7808C24.4554 20.8609 24.8332 19.8479 24.8332 18.8333C24.8332 17.2862 24.2186 15.8025 23.1246 14.7085C22.0307 13.6146 20.547 13 18.9998 13C17.4527 13 15.969 13.6146 14.875 14.7085C13.7811 15.8025 13.1665 17.2862 13.1665 18.8333C13.1665 19.8479 13.5443 20.8609 14.0617 21.7808C14.5822 22.7061 15.2683 23.58 15.9413 24.3278C16.6159 25.0774 17.2887 25.7126 17.792 26.1599C18.044 26.384 18.2546 26.5618 18.4029 26.6842C18.4771 26.7455 18.5359 26.793 18.5765 26.8255C18.5968 26.8417 18.6126 26.8542 18.6236 26.8629L18.6364 26.873L18.64 26.8758L18.6414 26.8769ZM15.7 15.5335C16.5752 14.6583 17.7622 14.1667 18.9998 14.1667C20.2375 14.1667 21.4245 14.6583 22.2997 15.5335C23.1748 16.4087 23.6665 17.5957 23.6665 18.8333C23.6665 19.5687 23.388 20.3787 22.9211 21.2088C22.4572 22.0335 21.8308 22.8367 21.1912 23.5473C20.5534 24.2559 19.9137 24.8603 19.4326 25.288C19.2668 25.4354 19.1203 25.5613 18.9998 25.6629C18.8794 25.5613 18.7329 25.4354 18.5671 25.288C18.086 24.8603 17.4463 24.2559 16.8084 23.5473C16.1689 22.8367 15.5425 22.0335 15.0786 21.2088C14.6116 20.3787 14.3332 19.5687 14.3332 18.8333C14.3332 17.5957 14.8248 16.4087 15.7 15.5335Z" fill="white"/>
</svg>
