<svg width="26" height="26" viewBox="0 0 26 26" fill="none" xmlns="http://www.w3.org/2000/svg">
<g clip-path="url(#clip0_30_137)">
<path d="M11.6982 15.1129L15.7573 12.7298L11.6982 10.3467V15.1129Z" fill="white"/>
<path d="M13.3502 0.324951C6.50113 0.324951 0.950195 5.87589 0.950195 12.725C0.950195 19.574 6.50113 25.125 13.3502 25.125C20.1993 25.125 25.7502 19.574 25.7502 12.725C25.7502 5.87589 20.1993 0.324951 13.3502 0.324951ZM19.5502 14.9434C19.5502 17.0795 17.4141 17.0795 17.4141 17.0795H9.28629C7.1502 17.0795 7.1502 14.9434 7.1502 14.9434V10.5114C7.1502 8.37526 9.28629 8.37526 9.28629 8.37526H17.4141C19.5502 8.37526 19.5502 10.5114 19.5502 10.5114V14.9434Z" fill="white"/>
</g>
<defs>
<clipPath id="clip0_30_137">
<rect width="24.8" height="24.8" fill="white" transform="translate(0.950195 0.324951)"/>
</clipPath>
</defs>
</svg>
